<?xml version="1.0" encoding="UTF-8" standalone="no"?>
<!-- Generator: Adobe Illustrator 19.0.0, SVG Export Plug-In . SVG Version: 6.00 Build 0)  -->

<svg
   version="1.1"
   id="Layer_1"
   x="0px"
   y="0px"
   viewBox="0 0 512 512"
   style="enable-background:new 0 0 512 512;"
   xml:space="preserve"
   sodipodi:docname="youtube.svg"
   inkscape:version="1.1 (c4e8f9ed74, 2021-05-24)"
   xmlns:inkscape="http://www.inkscape.org/namespaces/inkscape"
   xmlns:sodipodi="http://sodipodi.sourceforge.net/DTD/sodipodi-0.dtd"
   xmlns="http://www.w3.org/2000/svg"
   xmlns:svg="http://www.w3.org/2000/svg"><defs
   id="defs43" /><sodipodi:namedview
   id="namedview41"
   pagecolor="#ffffff"
   bordercolor="#666666"
   borderopacity="1.0"
   inkscape:pageshadow="2"
   inkscape:pageopacity="0.0"
   inkscape:pagecheckerboard="0"
   showgrid="false"
   inkscape:zoom="1.6289062"
   inkscape:cx="256.00001"
   inkscape:cy="256.00001"
   inkscape:window-width="1920"
   inkscape:window-height="1019"
   inkscape:window-x="0"
   inkscape:window-y="0"
   inkscape:window-maximized="1"
   inkscape:current-layer="Layer_1" />
<path
   id="circle2"
   style="fill:#D22215;"
   d="M 256 0 A 256 256 0 0 0 0 256 A 256 256 0 0 0 256 512 A 256 256 0 0 0 512 256 A 256 256 0 0 0 256 0 z M 170.35156 152.33203 L 341.64844 152.33203 C 375.25544 152.33203 402.50195 179.57855 402.50195 213.18555 L 402.50195 298.81641 C 402.50195 332.42341 375.25644 359.66992 341.64844 359.66992 L 170.35156 359.66992 C 136.74456 359.66992 109.49805 332.42441 109.49805 298.81641 L 109.49805 213.18555 C 109.49805 179.57855 136.74356 152.33203 170.35156 152.33203 z M 218.80859 213.44727 C 217.1945 213.53938 215.77148 214.86406 215.77148 216.66406 L 215.77148 295.47852 C 215.77148 297.84352 218.23705 299.39791 220.37305 298.37891 L 300.49414 260.16797 C 302.90414 259.01997 302.94655 255.60153 300.56055 254.39453 L 220.44141 213.79492 C 219.90691 213.52367 219.34662 213.41656 218.80859 213.44727 z " />



<g
   id="g10">
</g>
<g
   id="g12">
</g>
<g
   id="g14">
</g>
<g
   id="g16">
</g>
<g
   id="g18">
</g>
<g
   id="g20">
</g>
<g
   id="g22">
</g>
<g
   id="g24">
</g>
<g
   id="g26">
</g>
<g
   id="g28">
</g>
<g
   id="g30">
</g>
<g
   id="g32">
</g>
<g
   id="g34">
</g>
<g
   id="g36">
</g>
<g
   id="g38">
</g>
</svg>
